<mxfile host="app.diagrams.net" modified="2021-04-27T15:11:21.714Z" agent="5.0 (Windows NT 10.0; Win64; x64) AppleWebKit/537.36 (KHTML, like Gecko) Chrome/90.0.4430.93 Safari/537.36" etag="tWzE7WuvJhR_WlmsmBod" version="14.6.3" type="github">
  <diagram id="eOCSV4TAboX4JURnP9C4" name="Seite-1">
    <mxGraphModel dx="1422" dy="892" grid="1" gridSize="10" guides="1" tooltips="1" connect="1" arrows="1" fold="1" page="1" pageScale="1" pageWidth="827" pageHeight="1169" math="0" shadow="0">
      <root>
        <mxCell id="0" />
        <mxCell id="1" parent="0" />
        <mxCell id="hnSfwi1Ho9SDqRFrZ4Va-5" value="" style="group;dropTarget=0;" parent="1" vertex="1">
          <mxGeometry x="340" y="15" width="640" height="45" as="geometry" />
        </mxCell>
        <UserObject label="To-Do Extended App" lucidchartObjectId="U7PNEHNEvIEY" id="hnSfwi1Ho9SDqRFrZ4Va-6">
          <mxCell style="points=[[0.688,0.967,0]];html=1;overflow=block;blockSpacing=1;whiteSpace=wrap;;whiteSpace=wrap;fontSize=19.7;fontColor=#a9afb8;fontStyle=1;align=center;spacingLeft=7;spacingRight=7;spacingTop=2;spacing=3;strokeOpacity=0;fillOpacity=0;rounded=1;absoluteArcSize=1;arcSize=12;fillColor=#ffffff;strokeWidth=1.5;" parent="hnSfwi1Ho9SDqRFrZ4Va-5" vertex="1">
            <mxGeometry width="640" height="31" as="geometry" />
          </mxCell>
        </UserObject>
        <UserObject label="" placeholders="1" lucidchartObjectId="U7PNwYMRwzRe" id="hnSfwi1Ho9SDqRFrZ4Va-7">
          <mxCell style="html=1;overflow=block;blockSpacing=1;whiteSpace=wrap;;whiteSpace=wrap;fontSize=11.5;fontColor=#a9afb8;align=center;spacingLeft=7;spacingRight=7;spacingTop=2;spacing=3;strokeOpacity=0;fillOpacity=0;rounded=1;absoluteArcSize=1;arcSize=12;fillColor=#ffffff;strokeWidth=1.5;" parent="hnSfwi1Ho9SDqRFrZ4Va-5" vertex="1">
            <mxGeometry y="31" width="640" height="14" as="geometry" />
          </mxCell>
        </UserObject>
        <UserObject label="" lucidchartObjectId="U7PNrnxMDtur" id="hnSfwi1Ho9SDqRFrZ4Va-8">
          <mxCell style="html=1;jettySize=18;whiteSpace=wrap;fontSize=13;fontFamily=Helvetica;strokeColor=#a9afb8;strokeOpacity=100;strokeWidth=1.5;rounded=0;startArrow=none;;endArrow=none;;entryX=0.688;entryY=0.967;entryPerimeter=0;" parent="hnSfwi1Ho9SDqRFrZ4Va-5" target="hnSfwi1Ho9SDqRFrZ4Va-6" edge="1">
            <mxGeometry width="100" height="100" relative="1" as="geometry">
              <Array as="points" />
              <mxPoint x="206" y="30" as="sourcePoint" />
            </mxGeometry>
          </mxCell>
        </UserObject>
        <mxCell id="fGt8f_qGY14LkmYrRQs4-35" style="edgeStyle=orthogonalEdgeStyle;rounded=0;sketch=0;orthogonalLoop=1;jettySize=auto;html=1;shadow=0;entryX=0;entryY=0.5;entryDx=0;entryDy=0;" edge="1" parent="1" source="hnSfwi1Ho9SDqRFrZ4Va-10" target="fGt8f_qGY14LkmYrRQs4-40">
          <mxGeometry relative="1" as="geometry">
            <mxPoint x="596" y="597" as="targetPoint" />
          </mxGeometry>
        </mxCell>
        <UserObject label="MODEL" lucidchartObjectId="c~ftY6l.iCiz" id="hnSfwi1Ho9SDqRFrZ4Va-10">
          <mxCell style="html=1;overflow=block;blockSpacing=1;whiteSpace=wrap;;whiteSpace=wrap;fontSize=13;fontColor=#333333;align=center;spacing=3.8;strokeColor=#333333;strokeOpacity=100;fillOpacity=100;fillColor=#ffffff;strokeWidth=1.5;" parent="1" vertex="1">
            <mxGeometry x="180" y="567" width="120" height="60" as="geometry" />
          </mxCell>
        </UserObject>
        <UserObject label="" lucidchartObjectId="Z~ftl3bWn_XZ" id="hnSfwi1Ho9SDqRFrZ4Va-12">
          <mxCell style="html=1;jettySize=18;whiteSpace=wrap;fontSize=13;strokeColor=#333333;strokeOpacity=100;strokeWidth=0.8;rounded=1;arcSize=24;edgeStyle=orthogonalEdgeStyle;startArrow=none;;endArrow=block;endFill=1;;exitX=0.5;exitY=1.013;exitPerimeter=0;entryX=0.5;entryY=-0.012;entryPerimeter=0;" parent="1" source="hnSfwi1Ho9SDqRFrZ4Va-10" target="hnSfwi1Ho9SDqRFrZ4Va-13" edge="1">
            <mxGeometry width="100" height="100" relative="1" as="geometry">
              <Array as="points" />
            </mxGeometry>
          </mxCell>
        </UserObject>
        <mxCell id="fGt8f_qGY14LkmYrRQs4-16" style="edgeStyle=orthogonalEdgeStyle;rounded=0;sketch=0;orthogonalLoop=1;jettySize=auto;html=1;exitX=1;exitY=0.5;exitDx=0;exitDy=0;shadow=0;" edge="1" parent="1" source="hnSfwi1Ho9SDqRFrZ4Va-13">
          <mxGeometry relative="1" as="geometry">
            <mxPoint x="600" y="869" as="targetPoint" />
            <Array as="points">
              <mxPoint x="600" y="869" />
            </Array>
          </mxGeometry>
        </mxCell>
        <UserObject label="CONTROLLER" lucidchartObjectId="2~ft0K8MMD~K" id="hnSfwi1Ho9SDqRFrZ4Va-13">
          <mxCell style="html=1;overflow=block;blockSpacing=1;whiteSpace=wrap;;whiteSpace=wrap;fontSize=13;fontColor=#333333;align=center;spacing=3.8;strokeColor=#333333;strokeOpacity=100;fillOpacity=100;fillColor=#ffffff;strokeWidth=1.5;" parent="1" vertex="1">
            <mxGeometry x="180" y="838.92" width="120" height="60" as="geometry" />
          </mxCell>
        </UserObject>
        <UserObject label="" lucidchartObjectId="8~ftyOhcbgiU" id="hnSfwi1Ho9SDqRFrZ4Va-14">
          <mxCell style="html=1;jettySize=18;whiteSpace=wrap;fontSize=13;strokeColor=#333333;strokeOpacity=100;strokeWidth=0.8;rounded=1;arcSize=24;edgeStyle=orthogonalEdgeStyle;startArrow=none;;endArrow=block;endFill=1;;exitX=0.5;exitY=1.013;exitPerimeter=0;entryX=0.5;entryY=-0.012;entryPerimeter=0;" parent="1" source="hnSfwi1Ho9SDqRFrZ4Va-13" target="hnSfwi1Ho9SDqRFrZ4Va-15" edge="1">
            <mxGeometry width="100" height="100" relative="1" as="geometry">
              <Array as="points" />
            </mxGeometry>
          </mxCell>
        </UserObject>
        <mxCell id="fGt8f_qGY14LkmYrRQs4-25" style="edgeStyle=orthogonalEdgeStyle;rounded=0;sketch=0;orthogonalLoop=1;jettySize=auto;html=1;shadow=0;" edge="1" parent="1" source="hnSfwi1Ho9SDqRFrZ4Va-15" target="fGt8f_qGY14LkmYrRQs4-14">
          <mxGeometry relative="1" as="geometry" />
        </mxCell>
        <UserObject label="VIEW" lucidchartObjectId="_~ftyiLubZ3a" id="hnSfwi1Ho9SDqRFrZ4Va-15">
          <mxCell style="html=1;overflow=block;blockSpacing=1;whiteSpace=wrap;;whiteSpace=wrap;fontSize=13;fontColor=#333333;align=center;spacing=3.8;strokeColor=#333333;strokeOpacity=100;fillOpacity=100;fillColor=#ffffff;strokeWidth=1.5;" parent="1" vertex="1">
            <mxGeometry x="180" y="1130" width="120" height="60" as="geometry" />
          </mxCell>
        </UserObject>
        <UserObject label="" lucidchartObjectId="KNmus4Q4e7P1" id="hnSfwi1Ho9SDqRFrZ4Va-18">
          <mxCell style="html=1;jettySize=18;whiteSpace=wrap;fontSize=13;strokeColor=#333333;strokeOpacity=100;strokeWidth=0.8;rounded=1;arcSize=24;edgeStyle=orthogonalEdgeStyle;startArrow=none;;endArrow=block;endFill=1;;exitX=1.004;exitY=0.5;exitPerimeter=0;entryX=0;entryY=0.5;entryDx=0;entryDy=0;" parent="1" source="hnSfwi1Ho9SDqRFrZ4Va-69" target="fGt8f_qGY14LkmYrRQs4-38" edge="1">
            <mxGeometry width="100" height="100" relative="1" as="geometry">
              <Array as="points" />
              <mxPoint x="1199.19" y="610.885" as="targetPoint" />
            </mxGeometry>
          </mxCell>
        </UserObject>
        <mxCell id="hnSfwi1Ho9SDqRFrZ4Va-25" value="&lt;div style=&quot;display: flex; justify-content: center; text-align: center; align-items: baseline; font-size: 0; line-height: 1.25;margin-top: -2px;&quot;&gt;&lt;span&gt;&lt;span style=&quot;font-size:13px;color:#333333;&quot;&gt;index.js&lt;/span&gt;&lt;/span&gt;&lt;/div&gt;" style="rounded=1;arcSize=20;whiteSpace=wrap;overflow=block;blockSpacing=1;html=1;fontSize=13;spacing=0;strokeColor=#333333;strokeOpacity=100;fillOpacity=100;fillColor=#ffffff;strokeWidth=1.5;" parent="1" vertex="1">
          <mxGeometry x="180" y="1249" width="120" height="60" as="geometry" />
        </mxCell>
        <UserObject label="" lucidchartObjectId="K2RtI70EVKOM" id="hnSfwi1Ho9SDqRFrZ4Va-26">
          <mxCell style="html=1;jettySize=18;whiteSpace=wrap;fontSize=13;strokeColor=#333333;strokeOpacity=100;strokeWidth=0.8;rounded=1;arcSize=24;edgeStyle=orthogonalEdgeStyle;startArrow=block;startFill=1;;endArrow=none;;exitX=0.5;exitY=-0.012;exitPerimeter=0;entryX=0.5;entryY=1.013;entryPerimeter=0;" parent="1" source="hnSfwi1Ho9SDqRFrZ4Va-25" target="hnSfwi1Ho9SDqRFrZ4Va-15" edge="1">
            <mxGeometry width="100" height="100" relative="1" as="geometry">
              <Array as="points" />
            </mxGeometry>
          </mxCell>
        </UserObject>
        <UserObject label="" lucidchartObjectId="GPmu9A~M9-Zw" id="hnSfwi1Ho9SDqRFrZ4Va-30">
          <mxCell style="html=1;jettySize=18;whiteSpace=wrap;fontSize=13;strokeColor=#333333;strokeOpacity=100;strokeWidth=0.8;rounded=1;arcSize=24;edgeStyle=orthogonalEdgeStyle;startArrow=none;;endArrow=block;endFill=1;;exitX=1.003;exitY=0.5;exitPerimeter=0;entryX=-0.003;entryY=0.5;entryPerimeter=0;" parent="1" source="hnSfwi1Ho9SDqRFrZ4Va-73" target="hnSfwi1Ho9SDqRFrZ4Va-32" edge="1">
            <mxGeometry width="100" height="100" relative="1" as="geometry">
              <Array as="points" />
            </mxGeometry>
          </mxCell>
        </UserObject>
        <mxCell id="hnSfwi1Ho9SDqRFrZ4Va-32" value="user.js" style="html=1;overflow=block;blockSpacing=1;whiteSpace=wrap;swimlane;childLayout=stackLayout;horizontal=1;horizontalStack=0;resizeParent=1;resizeParentMax=0;resizeLast=0;collapsible=0;fontStyle=0;marginBottom=0;swimlaneFillColor=#ffffff;startSize=25;whiteSpace=wrap;fontSize=13;fontColor=#333333;align=center;whiteSpace=wrap;align=left;spacing=0;strokeColor=#333333;strokeOpacity=100;fillOpacity=100;fillColor=#ffffff;strokeWidth=1.5;shadow=0;sketch=0;" parent="1" vertex="1">
          <mxGeometry x="1875" y="504" width="240" height="201.25" as="geometry" />
        </mxCell>
        <mxCell id="hnSfwi1Ho9SDqRFrZ4Va-33" value="&lt;div style=&quot;display: flex; justify-content: center; text-align: center; align-items: baseline; font-size: 0; line-height: 1.25;margin-top: -2px;&quot;&gt;&lt;span&gt;&lt;span style=&quot;font-size:13px;color:#333333;&quot;&gt;+ attribute1:type = defaultValue&#xa;&lt;/span&gt;&lt;/span&gt;&lt;/div&gt;&lt;div style=&quot;display: flex; justify-content: center; text-align: center; align-items: baseline; font-size: 0; line-height: 1.25;margin-top: -2px;&quot;&gt;&lt;span&gt;&lt;span style=&quot;font-size:13px;color:#333333;&quot;&gt;+ attribute2:type&#xa;&lt;/span&gt;&lt;/span&gt;&lt;/div&gt;&lt;div style=&quot;display: flex; justify-content: center; text-align: center; align-items: baseline; font-size: 0; line-height: 1.25;margin-top: -2px;&quot;&gt;&lt;span&gt;&lt;span style=&quot;font-size:13px;color:#333333;&quot;&gt;- attribute3:type&lt;/span&gt;&lt;/span&gt;&lt;/div&gt;" style="part=1;html=1;whiteSpace=wrap;resizeHeight=0;strokeColor=none;fillColor=none;align=left;verticalAlign=middle;spacingLeft=4;spacingRight=4;overflow=hidden;rotatable=0;points=[[0,0.5],[1,0.5]];portConstraint=eastwest;swimlaneFillColor=#ffffff;strokeOpacity=100;fillOpacity=100;whiteSpace=wrap;fontSize=13;fontColor=#333333;align=center;shadow=0;sketch=0;" parent="hnSfwi1Ho9SDqRFrZ4Va-32" vertex="1">
          <mxGeometry y="25" width="240" height="79" as="geometry" />
        </mxCell>
        <mxCell id="hnSfwi1Ho9SDqRFrZ4Va-34" value="" style="line;strokeWidth=1;fillColor=none;align=left;verticalAlign=middle;spacingTop=-1;spacingLeft=3;spacingRight=3;rotatable=0;labelPosition=right;points=[];portConstraint=eastwest;fillOpacity=100;strokeOpacity=100;shadow=0;sketch=0;" parent="hnSfwi1Ho9SDqRFrZ4Va-32" vertex="1">
          <mxGeometry y="104" width="240" height="8" as="geometry" />
        </mxCell>
        <mxCell id="hnSfwi1Ho9SDqRFrZ4Va-35" value="&lt;div style=&quot;display: flex; justify-content: center; text-align: center; align-items: baseline; font-size: 0; line-height: 1.25;margin-top: -2px;&quot;&gt;&lt;span&gt;&lt;span style=&quot;font-size:13px;color:#333333;&quot;&gt;+ operation1(params):returnType&#xa;&lt;/span&gt;&lt;/span&gt;&lt;/div&gt;&lt;div style=&quot;display: flex; justify-content: center; text-align: center; align-items: baseline; font-size: 0; line-height: 1.25;margin-top: -2px;&quot;&gt;&lt;span&gt;&lt;span style=&quot;font-size:13px;color:#333333;&quot;&gt;- operation2(params)&#xa;&lt;/span&gt;&lt;/span&gt;&lt;/div&gt;&lt;div style=&quot;display: flex; justify-content: center; text-align: center; align-items: baseline; font-size: 0; line-height: 1.25;margin-top: -2px;&quot;&gt;&lt;span&gt;&lt;span style=&quot;font-size:13px;color:#333333;&quot;&gt;- operation3()&lt;/span&gt;&lt;/span&gt;&lt;/div&gt;" style="part=1;html=1;whiteSpace=wrap;resizeHeight=0;strokeColor=none;fillColor=none;align=left;verticalAlign=middle;spacingLeft=4;spacingRight=4;overflow=hidden;rotatable=0;points=[[0,0.5],[1,0.5]];portConstraint=eastwest;swimlaneFillColor=#ffffff;strokeOpacity=100;fillOpacity=100;whiteSpace=wrap;overflow=block;blockSpacing=1;html=1;fontSize=13;shadow=0;sketch=0;" parent="hnSfwi1Ho9SDqRFrZ4Va-32" vertex="1">
          <mxGeometry y="112" width="240" height="89.25" as="geometry" />
        </mxCell>
        <mxCell id="c57WbjZJF1XwjpGA7Uo2-19" style="edgeStyle=orthogonalEdgeStyle;rounded=0;orthogonalLoop=1;jettySize=auto;html=1;exitX=0;exitY=0.5;exitDx=0;exitDy=0;entryX=1;entryY=0.5;entryDx=0;entryDy=0;" parent="1" source="hnSfwi1Ho9SDqRFrZ4Va-40" target="c57WbjZJF1XwjpGA7Uo2-17" edge="1">
          <mxGeometry relative="1" as="geometry" />
        </mxCell>
        <UserObject label="erbt von" lucidchartObjectId="s5lulmFAvcZQ" id="hnSfwi1Ho9SDqRFrZ4Va-40">
          <mxCell style="html=1;overflow=block;blockSpacing=1;whiteSpace=wrap;shape=rhombus;whiteSpace=wrap;fontSize=13;fontColor=#333333;align=center;spacing=3.8;strokeColor=#333333;strokeOpacity=100;fillOpacity=100;fillColor=#ffffff;strokeWidth=1.5;" parent="1" vertex="1">
            <mxGeometry x="654.5" y="386" width="108" height="99" as="geometry" />
          </mxCell>
        </UserObject>
        <mxCell id="hnSfwi1Ho9SDqRFrZ4Va-51" value="userview.js" style="html=1;overflow=block;blockSpacing=1;whiteSpace=wrap;swimlane;childLayout=stackLayout;horizontal=1;horizontalStack=0;resizeParent=1;resizeParentMax=0;resizeLast=0;collapsible=0;fontStyle=0;marginBottom=0;swimlaneFillColor=#ffffff;startSize=25;whiteSpace=wrap;fontSize=13;fontColor=#333333;align=center;whiteSpace=wrap;align=left;spacing=0;strokeColor=#333333;strokeOpacity=100;fillOpacity=100;fillColor=#ffffff;strokeWidth=1.5;shadow=0;sketch=0;" parent="1" vertex="1">
          <mxGeometry x="1890" y="930" width="225" height="136" as="geometry" />
        </mxCell>
        <mxCell id="hnSfwi1Ho9SDqRFrZ4Va-52" value="&lt;div style=&quot;display: flex; justify-content: center; text-align: center; align-items: baseline; font-size: 0; line-height: 1.25;margin-top: -2px;&quot;&gt;&lt;span&gt;&lt;span style=&quot;font-size:13px;color:#333333;&quot;&gt;+ attribute1:type = defaultValue&#xa;&lt;/span&gt;&lt;/span&gt;&lt;/div&gt;&lt;div style=&quot;display: flex; justify-content: center; text-align: center; align-items: baseline; font-size: 0; line-height: 1.25;margin-top: -2px;&quot;&gt;&lt;span&gt;&lt;span style=&quot;font-size:13px;color:#333333;&quot;&gt;+ attribute2:type&#xa;&lt;/span&gt;&lt;/span&gt;&lt;/div&gt;&lt;div style=&quot;display: flex; justify-content: center; text-align: center; align-items: baseline; font-size: 0; line-height: 1.25;margin-top: -2px;&quot;&gt;&lt;span&gt;&lt;span style=&quot;font-size:13px;color:#333333;&quot;&gt;- attribute3:type&lt;/span&gt;&lt;/span&gt;&lt;/div&gt;" style="part=1;html=1;whiteSpace=wrap;resizeHeight=0;strokeColor=none;fillColor=none;align=left;verticalAlign=middle;spacingLeft=4;spacingRight=4;overflow=hidden;rotatable=0;points=[[0,0.5],[1,0.5]];portConstraint=eastwest;swimlaneFillColor=#ffffff;strokeOpacity=100;fillOpacity=100;whiteSpace=wrap;fontSize=13;fontColor=#333333;align=center;shadow=0;sketch=0;" parent="hnSfwi1Ho9SDqRFrZ4Va-51" vertex="1">
          <mxGeometry y="25" width="225" height="62" as="geometry" />
        </mxCell>
        <mxCell id="hnSfwi1Ho9SDqRFrZ4Va-53" value="" style="line;strokeWidth=1;fillColor=none;align=left;verticalAlign=middle;spacingTop=-1;spacingLeft=3;spacingRight=3;rotatable=0;labelPosition=right;points=[];portConstraint=eastwest;fillOpacity=100;strokeOpacity=100;shadow=0;sketch=0;" parent="hnSfwi1Ho9SDqRFrZ4Va-51" vertex="1">
          <mxGeometry y="87" width="225" height="8" as="geometry" />
        </mxCell>
        <mxCell id="hnSfwi1Ho9SDqRFrZ4Va-54" value="&lt;div style=&quot;display: flex; justify-content: center; text-align: center; align-items: baseline; font-size: 0; line-height: 1.25;margin-top: -2px;&quot;&gt;&lt;span&gt;&lt;span style=&quot;font-size:13px;color:#333333;&quot;&gt;+ operation1(params):returnType&#xa;&lt;/span&gt;&lt;/span&gt;&lt;/div&gt;&lt;div style=&quot;display: flex; justify-content: center; text-align: center; align-items: baseline; font-size: 0; line-height: 1.25;margin-top: -2px;&quot;&gt;&lt;span&gt;&lt;span style=&quot;font-size:13px;color:#333333;&quot;&gt;- operation2(params)&#xa;&lt;/span&gt;&lt;/span&gt;&lt;/div&gt;&lt;div style=&quot;display: flex; justify-content: center; text-align: center; align-items: baseline; font-size: 0; line-height: 1.25;margin-top: -2px;&quot;&gt;&lt;span&gt;&lt;span style=&quot;font-size:13px;color:#333333;&quot;&gt;- operation3()&lt;/span&gt;&lt;/span&gt;&lt;/div&gt;" style="part=1;html=1;whiteSpace=wrap;resizeHeight=0;strokeColor=none;fillColor=none;align=left;verticalAlign=middle;spacingLeft=4;spacingRight=4;overflow=hidden;rotatable=0;points=[[0,0.5],[1,0.5]];portConstraint=eastwest;swimlaneFillColor=#ffffff;strokeOpacity=100;fillOpacity=100;whiteSpace=wrap;overflow=block;blockSpacing=1;html=1;fontSize=13;shadow=0;sketch=0;" parent="hnSfwi1Ho9SDqRFrZ4Va-51" vertex="1">
          <mxGeometry y="95" width="225" height="41" as="geometry" />
        </mxCell>
        <UserObject label="Authentication Part?" lucidchartObjectId="DZRtS0Nv-I5Q" id="hnSfwi1Ho9SDqRFrZ4Va-55">
          <mxCell style="html=1;overflow=block;blockSpacing=1;whiteSpace=wrap;shadow=1;whiteSpace=wrap;fontSize=13;spacing=3.8;strokeColor=none;fillColor=#FFECA9;strokeWidth=0;" parent="1" vertex="1">
            <mxGeometry x="45" y="1414" width="195" height="195" as="geometry" />
          </mxCell>
        </UserObject>
        <UserObject label="Where to put config.js?" lucidchartObjectId="-0jusw2t4aRP" id="hnSfwi1Ho9SDqRFrZ4Va-56">
          <mxCell style="html=1;overflow=block;blockSpacing=1;whiteSpace=wrap;shadow=1;whiteSpace=wrap;fontSize=13;spacing=3.8;strokeColor=none;fillColor=#FFECA9;strokeWidth=0;" parent="1" vertex="1">
            <mxGeometry x="330" y="1399" width="195" height="195" as="geometry" />
          </mxCell>
        </UserObject>
        <mxCell id="fGt8f_qGY14LkmYrRQs4-43" style="edgeStyle=orthogonalEdgeStyle;rounded=0;sketch=0;orthogonalLoop=1;jettySize=auto;html=1;exitX=0.5;exitY=0;exitDx=0;exitDy=0;entryX=0.5;entryY=1;entryDx=0;entryDy=0;shadow=0;" edge="1" parent="1" source="hnSfwi1Ho9SDqRFrZ4Va-57" target="fGt8f_qGY14LkmYrRQs4-42">
          <mxGeometry relative="1" as="geometry" />
        </mxCell>
        <mxCell id="hnSfwi1Ho9SDqRFrZ4Va-57" value="&lt;span&gt;&lt;b&gt;taskcontroller.js&lt;/b&gt;&lt;/span&gt;" style="html=1;overflow=block;blockSpacing=1;whiteSpace=wrap;swimlane;childLayout=stackLayout;horizontal=1;horizontalStack=0;resizeParent=1;resizeParentMax=0;resizeLast=0;collapsible=0;fontStyle=0;marginBottom=0;swimlaneFillColor=#ffffff;startSize=25;whiteSpace=wrap;fontSize=13;fontColor=#333333;align=center;whiteSpace=wrap;align=middle;spacing=0;strokeColor=#333333;strokeOpacity=100;fillOpacity=100;fillColor=#ffffff;strokeWidth=1.5;" parent="1" vertex="1">
          <mxGeometry x="604" y="808" width="218" height="136" as="geometry" />
        </mxCell>
        <mxCell id="hnSfwi1Ho9SDqRFrZ4Va-58" value="" style="part=1;html=1;whiteSpace=wrap;resizeHeight=0;strokeColor=none;fillColor=none;align=left;verticalAlign=middle;spacingLeft=4;spacingRight=4;overflow=hidden;rotatable=0;points=[[0,0.5],[1,0.5]];portConstraint=eastwest;swimlaneFillColor=#ffffff;strokeOpacity=100;fillOpacity=100;whiteSpace=wrap;fontSize=13;align=center;" parent="hnSfwi1Ho9SDqRFrZ4Va-57" vertex="1">
          <mxGeometry y="25" width="218" height="62" as="geometry" />
        </mxCell>
        <mxCell id="hnSfwi1Ho9SDqRFrZ4Va-59" value="" style="line;strokeWidth=1;fillColor=none;align=left;verticalAlign=middle;spacingTop=-1;spacingLeft=3;spacingRight=3;rotatable=0;labelPosition=right;points=[];portConstraint=eastwest;" parent="hnSfwi1Ho9SDqRFrZ4Va-57" vertex="1">
          <mxGeometry y="87" width="218" height="8" as="geometry" />
        </mxCell>
        <mxCell id="hnSfwi1Ho9SDqRFrZ4Va-60" value="- handleDone" style="part=1;html=1;whiteSpace=wrap;resizeHeight=0;strokeColor=none;fillColor=none;align=left;verticalAlign=middle;spacingLeft=4;spacingRight=4;overflow=hidden;rotatable=0;points=[[0,0.5],[1,0.5]];portConstraint=eastwest;swimlaneFillColor=#ffffff;strokeOpacity=100;fillOpacity=100;whiteSpace=wrap;fontSize=13;align=center;" parent="hnSfwi1Ho9SDqRFrZ4Va-57" vertex="1">
          <mxGeometry y="95" width="218" height="41" as="geometry" />
        </mxCell>
        <mxCell id="fGt8f_qGY14LkmYrRQs4-45" style="edgeStyle=orthogonalEdgeStyle;rounded=0;sketch=0;orthogonalLoop=1;jettySize=auto;html=1;entryX=1;entryY=0.5;entryDx=0;entryDy=0;shadow=0;exitX=0.529;exitY=-0.015;exitDx=0;exitDy=0;exitPerimeter=0;" edge="1" parent="1" source="hnSfwi1Ho9SDqRFrZ4Va-61" target="fGt8f_qGY14LkmYrRQs4-42">
          <mxGeometry relative="1" as="geometry">
            <Array as="points">
              <mxPoint x="1277" y="735" />
            </Array>
          </mxGeometry>
        </mxCell>
        <mxCell id="hnSfwi1Ho9SDqRFrZ4Va-61" value="&lt;b&gt;listcontroller.js&lt;/b&gt;" style="html=1;overflow=block;blockSpacing=1;whiteSpace=wrap;swimlane;childLayout=stackLayout;horizontal=1;horizontalStack=0;resizeParent=1;resizeParentMax=0;resizeLast=0;collapsible=0;fontStyle=0;marginBottom=0;swimlaneFillColor=#ffffff;startSize=25;whiteSpace=wrap;fontSize=13;fontColor=#333333;align=center;whiteSpace=wrap;align=middle;spacing=0;strokeColor=#333333;strokeOpacity=100;fillOpacity=100;fillColor=#ffffff;strokeWidth=1.5;" parent="1" vertex="1">
          <mxGeometry x="1150" y="810" width="240" height="136" as="geometry" />
        </mxCell>
        <mxCell id="hnSfwi1Ho9SDqRFrZ4Va-62" value="" style="part=1;html=1;whiteSpace=wrap;resizeHeight=0;strokeColor=none;fillColor=none;align=left;verticalAlign=middle;spacingLeft=4;spacingRight=4;overflow=hidden;rotatable=0;points=[[0,0.5],[1,0.5]];portConstraint=eastwest;swimlaneFillColor=#ffffff;strokeOpacity=100;fillOpacity=100;whiteSpace=wrap;fontSize=13;align=center;" parent="hnSfwi1Ho9SDqRFrZ4Va-61" vertex="1">
          <mxGeometry y="25" width="240" height="62" as="geometry" />
        </mxCell>
        <mxCell id="hnSfwi1Ho9SDqRFrZ4Va-63" value="" style="line;strokeWidth=1;fillColor=none;align=left;verticalAlign=middle;spacingTop=-1;spacingLeft=3;spacingRight=3;rotatable=0;labelPosition=right;points=[];portConstraint=eastwest;" parent="hnSfwi1Ho9SDqRFrZ4Va-61" vertex="1">
          <mxGeometry y="87" width="240" height="8" as="geometry" />
        </mxCell>
        <mxCell id="hnSfwi1Ho9SDqRFrZ4Va-64" value="" style="part=1;html=1;whiteSpace=wrap;resizeHeight=0;strokeColor=none;fillColor=none;align=left;verticalAlign=middle;spacingLeft=4;spacingRight=4;overflow=hidden;rotatable=0;points=[[0,0.5],[1,0.5]];portConstraint=eastwest;swimlaneFillColor=#ffffff;strokeOpacity=100;fillOpacity=100;whiteSpace=wrap;fontSize=13;align=center;" parent="hnSfwi1Ho9SDqRFrZ4Va-61" vertex="1">
          <mxGeometry y="95" width="240" height="41" as="geometry" />
        </mxCell>
        <mxCell id="hnSfwi1Ho9SDqRFrZ4Va-65" value="usercontroller.js" style="html=1;overflow=block;blockSpacing=1;whiteSpace=wrap;swimlane;childLayout=stackLayout;horizontal=1;horizontalStack=0;resizeParent=1;resizeParentMax=0;resizeLast=0;collapsible=0;fontStyle=0;marginBottom=0;swimlaneFillColor=#ffffff;startSize=25;whiteSpace=wrap;fontSize=13;fontColor=#333333;align=center;whiteSpace=wrap;align=left;spacing=0;strokeColor=#333333;strokeOpacity=100;fillOpacity=100;fillColor=#ffffff;strokeWidth=1.5;shadow=0;sketch=0;" parent="1" vertex="1">
          <mxGeometry x="1875" y="720" width="255" height="164.92328690743415" as="geometry" />
        </mxCell>
        <mxCell id="hnSfwi1Ho9SDqRFrZ4Va-66" value="&lt;div style=&quot;display: flex; justify-content: center; text-align: center; align-items: baseline; font-size: 0; line-height: 1.25;margin-top: -2px;&quot;&gt;&lt;span&gt;&lt;span style=&quot;font-size:13px;color:#333333;&quot;&gt;+ attribute1:type = defaultValue&#xa;&lt;/span&gt;&lt;/span&gt;&lt;/div&gt;&lt;div style=&quot;display: flex; justify-content: center; text-align: center; align-items: baseline; font-size: 0; line-height: 1.25;margin-top: -2px;&quot;&gt;&lt;span&gt;&lt;span style=&quot;font-size:13px;color:#333333;&quot;&gt;+ attribute2:type&#xa;&lt;/span&gt;&lt;/span&gt;&lt;/div&gt;&lt;div style=&quot;display: flex; justify-content: center; text-align: center; align-items: baseline; font-size: 0; line-height: 1.25;margin-top: -2px;&quot;&gt;&lt;span&gt;&lt;span style=&quot;font-size:13px;color:#333333;&quot;&gt;- attribute3:type&lt;/span&gt;&lt;/span&gt;&lt;/div&gt;" style="part=1;html=1;whiteSpace=wrap;resizeHeight=0;strokeColor=none;fillColor=none;align=left;verticalAlign=middle;spacingLeft=4;spacingRight=4;overflow=hidden;rotatable=0;points=[[0,0.5],[1,0.5]];portConstraint=eastwest;swimlaneFillColor=#ffffff;strokeOpacity=100;fillOpacity=100;whiteSpace=wrap;fontSize=13;fontColor=#333333;align=center;shadow=0;sketch=0;" parent="hnSfwi1Ho9SDqRFrZ4Va-65" vertex="1">
          <mxGeometry y="25" width="255" height="70" as="geometry" />
        </mxCell>
        <mxCell id="hnSfwi1Ho9SDqRFrZ4Va-67" value="" style="line;strokeWidth=1;fillColor=none;align=left;verticalAlign=middle;spacingTop=-1;spacingLeft=3;spacingRight=3;rotatable=0;labelPosition=right;points=[];portConstraint=eastwest;fillOpacity=100;strokeOpacity=100;shadow=0;sketch=0;" parent="hnSfwi1Ho9SDqRFrZ4Va-65" vertex="1">
          <mxGeometry y="95" width="255" height="8" as="geometry" />
        </mxCell>
        <mxCell id="hnSfwi1Ho9SDqRFrZ4Va-68" value="&lt;div style=&quot;display: flex; justify-content: center; text-align: center; align-items: baseline; font-size: 0; line-height: 1.25;margin-top: -2px;&quot;&gt;&lt;span&gt;&lt;span style=&quot;font-size:13px;color:#333333;&quot;&gt;+ operation1(params):returnType&#xa;&lt;/span&gt;&lt;/span&gt;&lt;/div&gt;&lt;div style=&quot;display: flex; justify-content: center; text-align: center; align-items: baseline; font-size: 0; line-height: 1.25;margin-top: -2px;&quot;&gt;&lt;span&gt;&lt;span style=&quot;font-size:13px;color:#333333;&quot;&gt;- operation2(params)&#xa;&lt;/span&gt;&lt;/span&gt;&lt;/div&gt;&lt;div style=&quot;display: flex; justify-content: center; text-align: center; align-items: baseline; font-size: 0; line-height: 1.25;margin-top: -2px;&quot;&gt;&lt;span&gt;&lt;span style=&quot;font-size:13px;color:#333333;&quot;&gt;- operation3()&lt;/span&gt;&lt;/span&gt;&lt;/div&gt;" style="part=1;html=1;whiteSpace=wrap;resizeHeight=0;strokeColor=none;fillColor=none;align=left;verticalAlign=middle;spacingLeft=4;spacingRight=4;overflow=hidden;rotatable=0;points=[[0,0.5],[1,0.5]];portConstraint=eastwest;swimlaneFillColor=#ffffff;strokeOpacity=100;fillOpacity=100;whiteSpace=wrap;overflow=block;blockSpacing=1;html=1;fontSize=13;shadow=0;sketch=0;" parent="hnSfwi1Ho9SDqRFrZ4Va-65" vertex="1">
          <mxGeometry y="103" width="255" height="61.92328690743415" as="geometry" />
        </mxCell>
        <mxCell id="hnSfwi1Ho9SDqRFrZ4Va-69" value="taskmapper.js" style="html=1;overflow=block;blockSpacing=1;whiteSpace=wrap;swimlane;childLayout=stackLayout;horizontal=1;horizontalStack=0;resizeParent=1;resizeParentMax=0;resizeLast=0;collapsible=0;fontStyle=0;marginBottom=0;swimlaneFillColor=#ffffff;startSize=25;whiteSpace=wrap;fontSize=13;fontColor=#333333;align=center;whiteSpace=wrap;align=left;spacing=0;strokeColor=#333333;strokeOpacity=100;fillOpacity=100;fillColor=#ffffff;strokeWidth=1.5;" parent="1" vertex="1">
          <mxGeometry x="885.5" y="510.37" width="210" height="201" as="geometry" />
        </mxCell>
        <mxCell id="hnSfwi1Ho9SDqRFrZ4Va-70" value="&lt;div style=&quot;display: flex; justify-content: center; text-align: center; align-items: baseline; font-size: 0; line-height: 1.25;margin-top: -2px;&quot;&gt;&lt;span&gt;&lt;span style=&quot;font-size:13px;color:#333333;font-weight: bold;&quot;&gt;Database Mapper um Datenbankaktionen auszuführen (evtl. Interface)&lt;/span&gt;&lt;span style=&quot;font-size:13px;color:#333333;&quot;&gt;&#xa;&lt;/span&gt;&lt;/span&gt;&lt;/div&gt;&lt;div style=&quot;display: flex; justify-content: center; text-align: center; align-items: baseline; font-size: 0; line-height: 1.25;margin-top: -2px;&quot;&gt;&lt;span&gt;&lt;span style=&quot;font-size:13px;color:#333333;&quot;&gt;&lt;span style=&quot;font-size:13px;color:#333333;&quot;&gt;+ attribute1:type = defaultValue&#xa;&lt;/span&gt;&lt;/span&gt;&lt;/span&gt;&lt;/div&gt;&lt;div style=&quot;display: flex; justify-content: center; text-align: center; align-items: baseline; font-size: 0; line-height: 1.25;margin-top: -2px;&quot;&gt;&lt;span&gt;&lt;span style=&quot;font-size:13px;color:#333333;&quot;&gt;+ attribute2:type&#xa;&lt;/span&gt;&lt;/span&gt;&lt;/div&gt;&lt;div style=&quot;display: flex; justify-content: center; text-align: center; align-items: baseline; font-size: 0; line-height: 1.25;margin-top: -2px;&quot;&gt;&lt;span&gt;&lt;span style=&quot;font-size:13px;color:#333333;&quot;&gt;- attribute3:type&lt;/span&gt;&lt;/span&gt;&lt;/div&gt;" style="part=1;html=1;whiteSpace=wrap;resizeHeight=0;strokeColor=none;fillColor=none;align=left;verticalAlign=middle;spacingLeft=4;spacingRight=4;overflow=hidden;rotatable=0;points=[[0,0.5],[1,0.5]];portConstraint=eastwest;swimlaneFillColor=#ffffff;strokeOpacity=100;fillOpacity=100;whiteSpace=wrap;fontSize=13;fontColor=#333333;fontStyle=1;align=center;" parent="hnSfwi1Ho9SDqRFrZ4Va-69" vertex="1">
          <mxGeometry y="25" width="210" height="95" as="geometry" />
        </mxCell>
        <mxCell id="hnSfwi1Ho9SDqRFrZ4Va-71" value="" style="line;strokeWidth=1;fillColor=none;align=left;verticalAlign=middle;spacingTop=-1;spacingLeft=3;spacingRight=3;rotatable=0;labelPosition=right;points=[];portConstraint=eastwest;" parent="hnSfwi1Ho9SDqRFrZ4Va-69" vertex="1">
          <mxGeometry y="120" width="210" height="8" as="geometry" />
        </mxCell>
        <mxCell id="hnSfwi1Ho9SDqRFrZ4Va-72" value="&lt;div style=&quot;display: flex; justify-content: center; text-align: center; align-items: baseline; font-size: 0; line-height: 1.25;margin-top: -2px;&quot;&gt;&lt;span&gt;&lt;span style=&quot;font-size:13px;color:#333333;&quot;&gt;+ operation1(params):returnType&#xa;&lt;/span&gt;&lt;/span&gt;&lt;/div&gt;&lt;div style=&quot;display: flex; justify-content: center; text-align: center; align-items: baseline; font-size: 0; line-height: 1.25;margin-top: -2px;&quot;&gt;&lt;span&gt;&lt;span style=&quot;font-size:13px;color:#333333;&quot;&gt;- operation2(params)&#xa;&lt;/span&gt;&lt;/span&gt;&lt;/div&gt;&lt;div style=&quot;display: flex; justify-content: center; text-align: center; align-items: baseline; font-size: 0; line-height: 1.25;margin-top: -2px;&quot;&gt;&lt;span&gt;&lt;span style=&quot;font-size:13px;color:#333333;&quot;&gt;- operation3()&lt;/span&gt;&lt;/span&gt;&lt;/div&gt;" style="part=1;html=1;whiteSpace=wrap;resizeHeight=0;strokeColor=none;fillColor=none;align=left;verticalAlign=middle;spacingLeft=4;spacingRight=4;overflow=hidden;rotatable=0;points=[[0,0.5],[1,0.5]];portConstraint=eastwest;swimlaneFillColor=#ffffff;strokeOpacity=100;fillOpacity=100;whiteSpace=wrap;overflow=block;blockSpacing=1;html=1;fontSize=13;" parent="hnSfwi1Ho9SDqRFrZ4Va-69" vertex="1">
          <mxGeometry y="128" width="210" height="73" as="geometry" />
        </mxCell>
        <mxCell id="hnSfwi1Ho9SDqRFrZ4Va-73" value="listmapper.js" style="html=1;overflow=block;blockSpacing=1;whiteSpace=wrap;swimlane;childLayout=stackLayout;horizontal=1;horizontalStack=0;resizeParent=1;resizeParentMax=0;resizeLast=0;collapsible=0;fontStyle=0;marginBottom=0;swimlaneFillColor=#ffffff;startSize=25;whiteSpace=wrap;fontSize=13;fontColor=#333333;align=center;whiteSpace=wrap;align=left;spacing=0;strokeColor=#333333;strokeOpacity=100;fillOpacity=100;fillColor=#ffffff;strokeWidth=1.5;" parent="1" vertex="1">
          <mxGeometry x="1515" y="504" width="270" height="201.25" as="geometry" />
        </mxCell>
        <mxCell id="hnSfwi1Ho9SDqRFrZ4Va-74" value="&lt;div style=&quot;display: flex; justify-content: center; text-align: center; align-items: baseline; font-size: 0; line-height: 1.25;margin-top: -2px;&quot;&gt;&lt;span&gt;&lt;span style=&quot;font-size:13px;color:#333333;&quot;&gt;+ attribute1:type = defaultValue&#xa;&lt;/span&gt;&lt;/span&gt;&lt;/div&gt;&lt;div style=&quot;display: flex; justify-content: center; text-align: center; align-items: baseline; font-size: 0; line-height: 1.25;margin-top: -2px;&quot;&gt;&lt;span&gt;&lt;span style=&quot;font-size:13px;color:#333333;&quot;&gt;+ attribute2:type&#xa;&lt;/span&gt;&lt;/span&gt;&lt;/div&gt;&lt;div style=&quot;display: flex; justify-content: center; text-align: center; align-items: baseline; font-size: 0; line-height: 1.25;margin-top: -2px;&quot;&gt;&lt;span&gt;&lt;span style=&quot;font-size:13px;color:#333333;&quot;&gt;- attribute3:type&lt;/span&gt;&lt;/span&gt;&lt;/div&gt;" style="part=1;html=1;whiteSpace=wrap;resizeHeight=0;strokeColor=none;fillColor=none;align=left;verticalAlign=middle;spacingLeft=4;spacingRight=4;overflow=hidden;rotatable=0;points=[[0,0.5],[1,0.5]];portConstraint=eastwest;swimlaneFillColor=#ffffff;strokeOpacity=100;fillOpacity=100;whiteSpace=wrap;fontSize=13;fontColor=#333333;align=center;" parent="hnSfwi1Ho9SDqRFrZ4Va-73" vertex="1">
          <mxGeometry y="25" width="270" height="79" as="geometry" />
        </mxCell>
        <mxCell id="hnSfwi1Ho9SDqRFrZ4Va-75" value="" style="line;strokeWidth=1;fillColor=none;align=left;verticalAlign=middle;spacingTop=-1;spacingLeft=3;spacingRight=3;rotatable=0;labelPosition=right;points=[];portConstraint=eastwest;" parent="hnSfwi1Ho9SDqRFrZ4Va-73" vertex="1">
          <mxGeometry y="104" width="270" height="8" as="geometry" />
        </mxCell>
        <mxCell id="hnSfwi1Ho9SDqRFrZ4Va-76" value="&lt;div style=&quot;display: flex; justify-content: center; text-align: center; align-items: baseline; font-size: 0; line-height: 1.25;margin-top: -2px;&quot;&gt;&lt;span&gt;&lt;span style=&quot;font-size:13px;color:#333333;&quot;&gt;+ operation1(params):returnType&#xa;&lt;/span&gt;&lt;/span&gt;&lt;/div&gt;&lt;div style=&quot;display: flex; justify-content: center; text-align: center; align-items: baseline; font-size: 0; line-height: 1.25;margin-top: -2px;&quot;&gt;&lt;span&gt;&lt;span style=&quot;font-size:13px;color:#333333;&quot;&gt;- operation2(params)&#xa;&lt;/span&gt;&lt;/span&gt;&lt;/div&gt;&lt;div style=&quot;display: flex; justify-content: center; text-align: center; align-items: baseline; font-size: 0; line-height: 1.25;margin-top: -2px;&quot;&gt;&lt;span&gt;&lt;span style=&quot;font-size:13px;color:#333333;&quot;&gt;- operation3()&lt;/span&gt;&lt;/span&gt;&lt;/div&gt;" style="part=1;html=1;whiteSpace=wrap;resizeHeight=0;strokeColor=none;fillColor=none;align=left;verticalAlign=middle;spacingLeft=4;spacingRight=4;overflow=hidden;rotatable=0;points=[[0,0.5],[1,0.5]];portConstraint=eastwest;swimlaneFillColor=#ffffff;strokeOpacity=100;fillOpacity=100;whiteSpace=wrap;overflow=block;blockSpacing=1;html=1;fontSize=13;" parent="hnSfwi1Ho9SDqRFrZ4Va-73" vertex="1">
          <mxGeometry y="112" width="270" height="89.25" as="geometry" />
        </mxCell>
        <UserObject label="Schauen ob wir User Part brauchen?" lucidchartObjectId="F1mupC6SSIpY" id="hnSfwi1Ho9SDqRFrZ4Va-77">
          <mxCell style="html=1;overflow=block;blockSpacing=1;whiteSpace=wrap;;whiteSpace=wrap;fontSize=13;fontColor=#333333;align=center;spacing=3.8;strokeColor=#333333;strokeOpacity=100;fillOpacity=100;fillColor=#ffffff;strokeWidth=1.5;shadow=0;sketch=0;" parent="1" vertex="1">
            <mxGeometry x="1913" y="285" width="195" height="138" as="geometry" />
          </mxCell>
        </UserObject>
        <UserObject label="" lucidchartObjectId="X1mubesnK8zv" id="hnSfwi1Ho9SDqRFrZ4Va-78">
          <mxCell style="html=1;jettySize=18;whiteSpace=wrap;fontSize=13;strokeColor=#333333;strokeOpacity=100;strokeWidth=0.8;rounded=1;arcSize=24;edgeStyle=orthogonalEdgeStyle;startArrow=none;;endArrow=block;endFill=1;;exitX=0.5;exitY=1.005;exitPerimeter=0;entryX=0.563;entryY=-0.004;entryPerimeter=0;fillOpacity=100;shadow=0;sketch=0;" parent="1" source="hnSfwi1Ho9SDqRFrZ4Va-77" target="hnSfwi1Ho9SDqRFrZ4Va-32" edge="1">
            <mxGeometry width="100" height="100" relative="1" as="geometry">
              <Array as="points" />
            </mxGeometry>
          </mxCell>
        </UserObject>
        <UserObject label="Überlegung ob wir Statischen Inhalt wie User Daten direkt in die Index.html schreiben oder eigene User MVC Part." lucidchartObjectId="y2muuLLlZN~S" id="hnSfwi1Ho9SDqRFrZ4Va-79">
          <mxCell style="html=1;overflow=block;blockSpacing=1;whiteSpace=wrap;shadow=1;whiteSpace=wrap;fontSize=13;spacing=3.8;strokeColor=none;fillColor=#FFECA9;strokeWidth=0;" parent="1" vertex="1">
            <mxGeometry x="604" y="1369" width="233" height="233" as="geometry" />
          </mxCell>
        </UserObject>
        <UserObject label="Statischer Inhalt in index.html" lucidchartObjectId="C.nuCZqoHkrY" id="hnSfwi1Ho9SDqRFrZ4Va-84">
          <mxCell style="html=1;overflow=block;blockSpacing=1;whiteSpace=wrap;shadow=1;whiteSpace=wrap;fontSize=13;spacing=3.8;strokeColor=none;fillColor=#FFECA9;strokeWidth=0;" parent="1" vertex="1">
            <mxGeometry x="878" y="1369" width="225" height="225" as="geometry" />
          </mxCell>
        </UserObject>
        <mxCell id="hnSfwi1Ho9SDqRFrZ4Va-87" value="&lt;div style=&quot;display: flex; justify-content: center; text-align: center; align-items: baseline; font-size: 0; line-height: 1.25;margin-top: -2px;&quot;&gt;&lt;span&gt;&lt;span style=&quot;font-size:13px;color:#333333;&quot;&gt;index.html&lt;/span&gt;&lt;/span&gt;&lt;/div&gt;" style="rounded=1;arcSize=20;whiteSpace=wrap;overflow=block;blockSpacing=1;html=1;fontSize=13;spacing=0;strokeColor=#333333;strokeOpacity=100;fillOpacity=100;fillColor=#ffffff;strokeWidth=1.5;" parent="1" vertex="1">
          <mxGeometry x="225" y="150" width="120" height="60" as="geometry" />
        </mxCell>
        <UserObject label="" lucidchartObjectId="Kbou1G4ICNrE" id="hnSfwi1Ho9SDqRFrZ4Va-88">
          <mxCell style="html=1;jettySize=18;whiteSpace=wrap;fontSize=13;strokeColor=#333333;strokeOpacity=100;strokeWidth=0.8;rounded=1;arcSize=24;edgeStyle=orthogonalEdgeStyle;startArrow=block;startFill=1;;endArrow=none;;exitX=-0.006;exitY=0.5;exitPerimeter=0;" parent="1" source="hnSfwi1Ho9SDqRFrZ4Va-87" edge="1">
            <mxGeometry width="100" height="100" relative="1" as="geometry">
              <Array as="points" />
              <mxPoint x="160" y="180" as="targetPoint" />
            </mxGeometry>
          </mxCell>
        </UserObject>
        <UserObject label="&lt;div style=&quot;display: flex; justify-content: center; text-align: center; align-items: baseline; font-size: 0; line-height: 1.25;margin-top: -2px;&quot;&gt;&lt;span&gt;&lt;span style=&quot;font-size:13px;color:#333333;&quot;&gt;Statischer Aufbau der Seite&#xa;&lt;/span&gt;&lt;/span&gt;&lt;/div&gt;&lt;ul style=&quot;margin: 0px; padding-left: 10px;list-style-position: inside; list-style-type:disc&quot;&gt;&lt;li style=&quot;text-align:left;color:#333333;&quot;&gt;&lt;span style=&quot;margin-left: 0px;margin-top: -2px;&quot;&gt;&lt;span style=&quot;font-size:13px;color:#333333;&quot;&gt;header (mit User Info)&lt;/span&gt;&lt;/span&gt;&lt;/li&gt;&lt;li style=&quot;text-align:left;color:#333333;&quot;&gt;&lt;span style=&quot;margin-left: 0px;margin-top: -2px;&quot;&gt;&lt;span style=&quot;font-size:13px;color:#333333;&quot;&gt;lists container&lt;/span&gt;&lt;/span&gt;&lt;/li&gt;&lt;li style=&quot;text-align:left;color:#333333;&quot;&gt;&lt;span style=&quot;margin-left: 0px;margin-top: -2px;&quot;&gt;&lt;span style=&quot;font-size:13px;color:#333333;&quot;&gt;list input field&lt;/span&gt;&lt;/span&gt;&lt;/li&gt;&lt;li style=&quot;text-align:left;color:#333333;&quot;&gt;&lt;span style=&quot;margin-left: 0px;margin-top: -2px;&quot;&gt;&lt;span style=&quot;font-size:13px;color:#333333;&quot;&gt;create list button&lt;/span&gt;&lt;/span&gt;&lt;/li&gt;&lt;li style=&quot;text-align:left;color:#333333;&quot;&gt;&lt;span style=&quot;margin-left: 0px;margin-top: -2px;&quot;&gt;&lt;span style=&quot;font-size:13px;color:#333333;&quot;&gt;tasks container&lt;/span&gt;&lt;/span&gt;&lt;/li&gt;&lt;li style=&quot;text-align:left;color:#333333;&quot;&gt;&lt;span style=&quot;margin-left: 0px;margin-top: -2px;&quot;&gt;&lt;span style=&quot;font-size:13px;color:#333333;&quot;&gt;task input field&lt;/span&gt;&lt;/span&gt;&lt;/li&gt;&lt;li style=&quot;text-align:left;color:#333333;&quot;&gt;&lt;span style=&quot;margin-left: 0px;margin-top: -2px;&quot;&gt;&lt;span style=&quot;font-size:13px;color:#333333;&quot;&gt;create task button&lt;/span&gt;&lt;/span&gt;&lt;/li&gt;&lt;li style=&quot;text-align:left;color:#333333;&quot;&gt;&lt;span style=&quot;margin-left: 0px;margin-top: -2px;&quot;&gt;&lt;span style=&quot;font-size:13px;color:#333333;&quot;&gt;footer (evtl.)&lt;/span&gt;&lt;/span&gt;&lt;/li&gt;&lt;/ul&gt;" lucidchartObjectId="ncoul36mbPxT" id="hnSfwi1Ho9SDqRFrZ4Va-89">
          <mxCell style="html=1;overflow=block;blockSpacing=1;whiteSpace=wrap;;whiteSpace=wrap;fontSize=13;spacing=3.8;strokeColor=#333333;strokeOpacity=100;fillOpacity=100;fillColor=#ffffff;strokeWidth=1.5;" parent="1" vertex="1">
            <mxGeometry x="450" y="90" width="195" height="180" as="geometry" />
          </mxCell>
        </UserObject>
        <UserObject label="" lucidchartObjectId="~ioujaFyrzyg" id="hnSfwi1Ho9SDqRFrZ4Va-90">
          <mxCell style="html=1;jettySize=18;whiteSpace=wrap;fontSize=13;strokeColor=#333333;strokeOpacity=100;strokeWidth=0.8;rounded=1;arcSize=24;edgeStyle=orthogonalEdgeStyle;startArrow=none;;endArrow=block;endFill=1;;exitX=1.006;exitY=0.5;exitPerimeter=0;" parent="1" source="hnSfwi1Ho9SDqRFrZ4Va-87" edge="1">
            <mxGeometry width="100" height="100" relative="1" as="geometry">
              <Array as="points">
                <mxPoint x="449" y="180" />
              </Array>
              <mxPoint x="449" y="180" as="targetPoint" />
            </mxGeometry>
          </mxCell>
        </UserObject>
        <UserObject label="erbt von" lucidchartObjectId="akouGLOBMePN" id="hnSfwi1Ho9SDqRFrZ4Va-92">
          <mxCell style="html=1;overflow=block;blockSpacing=1;whiteSpace=wrap;shape=rhombus;whiteSpace=wrap;fontSize=13;fontColor=#333333;align=center;spacing=3.8;strokeColor=#333333;strokeOpacity=100;fillOpacity=100;fillColor=#ffffff;strokeWidth=1.5;" parent="1" vertex="1">
            <mxGeometry x="654.5" y="976" width="108" height="99" as="geometry" />
          </mxCell>
        </UserObject>
        <mxCell id="c57WbjZJF1XwjpGA7Uo2-1" value="DIST" style="rounded=0;whiteSpace=wrap;html=1;" parent="1" vertex="1">
          <mxGeometry x="45" y="150" width="120" height="60" as="geometry" />
        </mxCell>
        <mxCell id="c57WbjZJF1XwjpGA7Uo2-9" value="" style="edgeStyle=orthogonalEdgeStyle;rounded=0;orthogonalLoop=1;jettySize=auto;html=1;" parent="1" source="c57WbjZJF1XwjpGA7Uo2-3" target="c57WbjZJF1XwjpGA7Uo2-4" edge="1">
          <mxGeometry relative="1" as="geometry" />
        </mxCell>
        <mxCell id="c57WbjZJF1XwjpGA7Uo2-3" value="AUTH" style="rounded=0;whiteSpace=wrap;html=1;" parent="1" vertex="1">
          <mxGeometry x="45" y="259" width="120" height="60" as="geometry" />
        </mxCell>
        <mxCell id="c57WbjZJF1XwjpGA7Uo2-10" style="edgeStyle=orthogonalEdgeStyle;rounded=0;orthogonalLoop=1;jettySize=auto;html=1;entryX=0.5;entryY=0;entryDx=0;entryDy=0;" parent="1" source="c57WbjZJF1XwjpGA7Uo2-4" target="c57WbjZJF1XwjpGA7Uo2-5" edge="1">
          <mxGeometry relative="1" as="geometry" />
        </mxCell>
        <mxCell id="fGt8f_qGY14LkmYrRQs4-32" style="edgeStyle=orthogonalEdgeStyle;rounded=0;sketch=0;orthogonalLoop=1;jettySize=auto;html=1;entryX=0.5;entryY=0;entryDx=0;entryDy=0;shadow=0;" edge="1" parent="1" source="c57WbjZJF1XwjpGA7Uo2-4" target="hnSfwi1Ho9SDqRFrZ4Va-10">
          <mxGeometry relative="1" as="geometry" />
        </mxCell>
        <mxCell id="c57WbjZJF1XwjpGA7Uo2-4" value="SRC" style="rounded=0;whiteSpace=wrap;html=1;" parent="1" vertex="1">
          <mxGeometry x="45" y="450.38" width="120" height="60" as="geometry" />
        </mxCell>
        <mxCell id="c57WbjZJF1XwjpGA7Uo2-5" value="TEST" style="rounded=0;whiteSpace=wrap;html=1;" parent="1" vertex="1">
          <mxGeometry x="45" y="1309" width="120" height="60" as="geometry" />
        </mxCell>
        <mxCell id="c57WbjZJF1XwjpGA7Uo2-7" value="" style="endArrow=classic;html=1;exitX=0.5;exitY=1;exitDx=0;exitDy=0;" parent="1" source="c57WbjZJF1XwjpGA7Uo2-1" target="c57WbjZJF1XwjpGA7Uo2-3" edge="1">
          <mxGeometry width="50" height="50" relative="1" as="geometry">
            <mxPoint x="110" y="210" as="sourcePoint" />
            <mxPoint x="110" y="440" as="targetPoint" />
            <Array as="points" />
          </mxGeometry>
        </mxCell>
        <mxCell id="c57WbjZJF1XwjpGA7Uo2-17" value="&lt;p style=&quot;margin: 0px ; margin-top: 4px ; text-align: center&quot;&gt;&lt;span style=&quot;font-weight: 700&quot;&gt;item.js (Abstract Class)&lt;/span&gt;&lt;br&gt;&lt;/p&gt;&lt;hr size=&quot;1&quot;&gt;&lt;p style=&quot;margin: 0px ; margin-left: 4px&quot;&gt;&lt;span&gt;- title:string = defaultValue&lt;/span&gt;&lt;br&gt;&lt;/p&gt;&lt;p style=&quot;margin: 0px ; margin-left: 4px&quot;&gt;- id:string&lt;br&gt;&lt;/p&gt;&lt;hr size=&quot;1&quot;&gt;&lt;p style=&quot;margin: 0px ; margin-left: 4px&quot;&gt;- CRUD Aktionen&lt;br&gt;&lt;/p&gt;" style="verticalAlign=top;align=left;overflow=fill;fontSize=12;fontFamily=Helvetica;html=1;" parent="1" vertex="1">
          <mxGeometry x="330" y="380" width="180" height="111" as="geometry" />
        </mxCell>
        <mxCell id="enc0Eu9jCuy0b9Ykru_g-4" value="&lt;p style=&quot;margin: 0px ; margin-top: 4px ; text-align: center&quot;&gt;&lt;span style=&quot;font-weight: 700&quot;&gt;itemcontroller.js (Abstract Class)&lt;/span&gt;&lt;br&gt;&lt;/p&gt;&lt;hr size=&quot;1&quot;&gt;&lt;p style=&quot;margin: 0px ; margin-left: 4px&quot;&gt;- onClickCreateItem&lt;/p&gt;&lt;p style=&quot;margin: 0px ; margin-left: 4px&quot;&gt;-&lt;/p&gt;&lt;hr size=&quot;1&quot;&gt;&lt;p style=&quot;margin: 0px ; margin-left: 4px&quot;&gt;- handleCreate&lt;br&gt;&lt;/p&gt;&lt;p style=&quot;margin: 0px ; margin-left: 4px&quot;&gt;- handleDelete&lt;/p&gt;&lt;p style=&quot;margin: 0px ; margin-left: 4px&quot;&gt;- handleEdit&lt;/p&gt;" style="verticalAlign=top;align=left;overflow=fill;fontSize=12;fontFamily=Helvetica;html=1;" parent="1" vertex="1">
          <mxGeometry x="330" y="670" width="200" height="130" as="geometry" />
        </mxCell>
        <mxCell id="fGt8f_qGY14LkmYrRQs4-27" value="" style="edgeStyle=orthogonalEdgeStyle;rounded=0;sketch=0;orthogonalLoop=1;jettySize=auto;html=1;shadow=0;" edge="1" parent="1" source="fGt8f_qGY14LkmYrRQs4-14" target="hnSfwi1Ho9SDqRFrZ4Va-92">
          <mxGeometry relative="1" as="geometry" />
        </mxCell>
        <mxCell id="fGt8f_qGY14LkmYrRQs4-29" style="edgeStyle=orthogonalEdgeStyle;rounded=0;sketch=0;orthogonalLoop=1;jettySize=auto;html=1;entryX=0;entryY=0.5;entryDx=0;entryDy=0;shadow=0;" edge="1" parent="1" source="fGt8f_qGY14LkmYrRQs4-14" target="fGt8f_qGY14LkmYrRQs4-28">
          <mxGeometry relative="1" as="geometry" />
        </mxCell>
        <mxCell id="fGt8f_qGY14LkmYrRQs4-14" value="&lt;p style=&quot;margin: 0px ; margin-top: 4px ; text-align: center&quot;&gt;&lt;span style=&quot;font-weight: 700&quot;&gt;tasksview.js&lt;/span&gt;&lt;br&gt;&lt;/p&gt;&lt;hr size=&quot;1&quot;&gt;&lt;p style=&quot;margin: 0px ; margin-left: 4px&quot;&gt;&lt;br&gt;&lt;/p&gt;&lt;hr size=&quot;1&quot;&gt;&lt;p style=&quot;margin: 0px ; margin-left: 4px&quot;&gt;- renderTask&lt;br style=&quot;padding: 0px ; margin: 0px&quot;&gt;- renderDone&lt;br&gt;&lt;/p&gt;" style="verticalAlign=top;align=left;overflow=fill;fontSize=12;fontFamily=Helvetica;html=1;shadow=0;" vertex="1" parent="1">
          <mxGeometry x="613.5" y="1108" width="190" height="104" as="geometry" />
        </mxCell>
        <mxCell id="fGt8f_qGY14LkmYrRQs4-31" style="edgeStyle=orthogonalEdgeStyle;rounded=0;sketch=0;orthogonalLoop=1;jettySize=auto;html=1;shadow=0;exitX=0;exitY=0.5;exitDx=0;exitDy=0;" edge="1" parent="1" source="hnSfwi1Ho9SDqRFrZ4Va-92" target="fGt8f_qGY14LkmYrRQs4-15">
          <mxGeometry relative="1" as="geometry" />
        </mxCell>
        <mxCell id="fGt8f_qGY14LkmYrRQs4-15" value="&lt;p style=&quot;margin: 0px ; margin-top: 4px ; text-align: center&quot;&gt;&lt;span style=&quot;font-weight: 700&quot;&gt;itemsview.js (Abstract Class)&lt;/span&gt;&lt;br&gt;&lt;/p&gt;&lt;hr size=&quot;1&quot;&gt;&lt;p style=&quot;margin: 0px ; margin-left: 4px&quot;&gt;+ container: HTMLElement&lt;br style=&quot;padding: 0px ; margin: 0px&quot;&gt;+ inputField&lt;br style=&quot;padding: 0px ; margin: 0px&quot;&gt;+ createItemButton&lt;br&gt;&lt;/p&gt;&lt;hr size=&quot;1&quot;&gt;&lt;p style=&quot;margin: 0px ; margin-left: 4px&quot;&gt;+ renderAll&lt;br style=&quot;padding: 0px ; margin: 0px&quot;&gt;-&amp;nbsp;renderDeleteButton&amp;nbsp;&lt;br style=&quot;padding: 0px ; margin: 0px&quot;&gt;- renderEdit&lt;br&gt;&lt;/p&gt;" style="verticalAlign=top;align=left;overflow=fill;fontSize=12;fontFamily=Helvetica;html=1;shadow=0;" vertex="1" parent="1">
          <mxGeometry x="330" y="955.5" width="190" height="140" as="geometry" />
        </mxCell>
        <mxCell id="fGt8f_qGY14LkmYrRQs4-30" style="edgeStyle=orthogonalEdgeStyle;rounded=0;sketch=0;orthogonalLoop=1;jettySize=auto;html=1;exitX=0.5;exitY=0;exitDx=0;exitDy=0;entryX=1;entryY=0.5;entryDx=0;entryDy=0;shadow=0;" edge="1" parent="1" source="fGt8f_qGY14LkmYrRQs4-28" target="hnSfwi1Ho9SDqRFrZ4Va-92">
          <mxGeometry relative="1" as="geometry" />
        </mxCell>
        <mxCell id="fGt8f_qGY14LkmYrRQs4-28" value="&lt;p style=&quot;margin: 0px ; margin-top: 4px ; text-align: center&quot;&gt;&lt;font style=&quot;font-size: 12px&quot;&gt;&lt;span style=&quot;color: rgb(51 , 51 , 51) ; text-align: left&quot;&gt;&lt;b&gt;listsview.js&lt;/b&gt;&lt;/span&gt;&lt;br&gt;&lt;/font&gt;&lt;/p&gt;&lt;hr size=&quot;1&quot;&gt;&lt;p style=&quot;margin: 0px ; margin-left: 4px&quot;&gt;&lt;font style=&quot;font-size: 12px&quot;&gt;&lt;br&gt;&lt;/font&gt;&lt;/p&gt;&lt;hr size=&quot;1&quot;&gt;&lt;p style=&quot;margin: 0px ; margin-left: 4px&quot;&gt;&lt;span style=&quot;color: rgb(51 , 51 , 51) ; text-align: center&quot;&gt;&lt;font style=&quot;font-size: 12px&quot;&gt;- renderList&lt;/font&gt;&lt;/span&gt;&lt;br&gt;&lt;/p&gt;" style="verticalAlign=top;align=left;overflow=fill;fontSize=12;fontFamily=Helvetica;html=1;shadow=0;" vertex="1" parent="1">
          <mxGeometry x="1150" y="1115" width="160" height="90" as="geometry" />
        </mxCell>
        <UserObject label="renderAll und renderDeleteButton in einer Methode machen?" lucidchartObjectId="DZRtS0Nv-I5Q" id="fGt8f_qGY14LkmYrRQs4-34">
          <mxCell style="html=1;overflow=block;blockSpacing=1;whiteSpace=wrap;shadow=1;whiteSpace=wrap;fontSize=13;spacing=3.8;strokeColor=none;fillColor=#FFECA9;strokeWidth=0;" vertex="1" parent="1">
            <mxGeometry x="1160" y="1380" width="210" height="210" as="geometry" />
          </mxCell>
        </UserObject>
        <mxCell id="fGt8f_qGY14LkmYrRQs4-39" style="edgeStyle=orthogonalEdgeStyle;rounded=0;sketch=0;orthogonalLoop=1;jettySize=auto;html=1;entryX=0;entryY=-0.056;entryDx=0;entryDy=0;entryPerimeter=0;shadow=0;" edge="1" parent="1" source="fGt8f_qGY14LkmYrRQs4-38" target="hnSfwi1Ho9SDqRFrZ4Va-76">
          <mxGeometry relative="1" as="geometry" />
        </mxCell>
        <mxCell id="fGt8f_qGY14LkmYrRQs4-47" style="edgeStyle=orthogonalEdgeStyle;rounded=0;sketch=0;orthogonalLoop=1;jettySize=auto;html=1;exitX=0.5;exitY=0;exitDx=0;exitDy=0;entryX=1;entryY=0.5;entryDx=0;entryDy=0;shadow=0;" edge="1" parent="1" source="fGt8f_qGY14LkmYrRQs4-38" target="hnSfwi1Ho9SDqRFrZ4Va-40">
          <mxGeometry relative="1" as="geometry" />
        </mxCell>
        <mxCell id="fGt8f_qGY14LkmYrRQs4-38" value="&lt;p style=&quot;margin: 0px ; margin-top: 4px ; text-align: center&quot;&gt;&lt;b&gt;listmodel.js&lt;/b&gt;&lt;/p&gt;&lt;hr size=&quot;1&quot;&gt;&lt;p style=&quot;margin: 0px ; margin-left: 4px&quot;&gt;+ active: boolean&lt;/p&gt;&lt;hr size=&quot;1&quot;&gt;&lt;p style=&quot;margin: 0px ; margin-left: 4px&quot;&gt;+ get(): returnType&lt;/p&gt;&lt;p style=&quot;margin: 0px ; margin-left: 4px&quot;&gt;+ set(params)&lt;/p&gt;" style="verticalAlign=top;align=left;overflow=fill;fontSize=12;fontFamily=Helvetica;html=1;shadow=0;" vertex="1" parent="1">
          <mxGeometry x="1230" y="565.88" width="160" height="90" as="geometry" />
        </mxCell>
        <mxCell id="fGt8f_qGY14LkmYrRQs4-46" style="edgeStyle=orthogonalEdgeStyle;rounded=0;sketch=0;orthogonalLoop=1;jettySize=auto;html=1;exitX=0.5;exitY=0;exitDx=0;exitDy=0;entryX=0.5;entryY=1;entryDx=0;entryDy=0;shadow=0;" edge="1" parent="1" source="fGt8f_qGY14LkmYrRQs4-40" target="hnSfwi1Ho9SDqRFrZ4Va-40">
          <mxGeometry relative="1" as="geometry" />
        </mxCell>
        <mxCell id="fGt8f_qGY14LkmYrRQs4-40" value="&lt;p style=&quot;margin: 0px ; margin-top: 4px ; text-align: center&quot;&gt;&lt;b&gt;&lt;font style=&quot;font-size: 12px&quot;&gt;taskmodel.js&lt;/font&gt;&lt;/b&gt;&lt;/p&gt;&lt;hr size=&quot;1&quot;&gt;&lt;p style=&quot;margin: 0px ; margin-left: 4px&quot;&gt;&lt;font style=&quot;font-size: 12px&quot;&gt;&lt;span style=&quot;color: rgb(51 , 51 , 51)&quot;&gt;- Lists: array&lt;/span&gt;&lt;br style=&quot;color: rgb(51 , 51 , 51)&quot;&gt;&lt;span style=&quot;color: rgb(51 , 51 , 51)&quot;&gt;- done: boolean&lt;/span&gt;&lt;br style=&quot;color: rgb(51 , 51 , 51)&quot;&gt;&lt;span style=&quot;color: rgb(51 , 51 , 51)&quot;&gt;- order: number *&lt;/span&gt;&lt;br&gt;&lt;/font&gt;&lt;/p&gt;&lt;hr size=&quot;1&quot;&gt;&lt;p style=&quot;margin: 0px ; margin-left: 4px&quot;&gt;&lt;span style=&quot;color: rgb(51 , 51 , 51)&quot;&gt;+ get():returnType&lt;/span&gt;&lt;br style=&quot;color: rgb(51 , 51 , 51)&quot;&gt;&lt;span style=&quot;color: rgb(51 , 51 , 51)&quot;&gt;+ set(params)&lt;/span&gt;&lt;br&gt;&lt;/p&gt;" style="verticalAlign=top;align=left;overflow=fill;fontSize=12;fontFamily=Helvetica;html=1;shadow=0;" vertex="1" parent="1">
          <mxGeometry x="628.5" y="534.25" width="160" height="125.5" as="geometry" />
        </mxCell>
        <mxCell id="fGt8f_qGY14LkmYrRQs4-44" style="edgeStyle=orthogonalEdgeStyle;rounded=0;sketch=0;orthogonalLoop=1;jettySize=auto;html=1;exitX=0;exitY=0.5;exitDx=0;exitDy=0;shadow=0;" edge="1" parent="1" source="fGt8f_qGY14LkmYrRQs4-42" target="enc0Eu9jCuy0b9Ykru_g-4">
          <mxGeometry relative="1" as="geometry" />
        </mxCell>
        <UserObject label="erbt von" lucidchartObjectId="akouGLOBMePN" id="fGt8f_qGY14LkmYrRQs4-42">
          <mxCell style="html=1;overflow=block;blockSpacing=1;whiteSpace=wrap;shape=rhombus;whiteSpace=wrap;fontSize=13;fontColor=#333333;align=center;spacing=3.8;strokeColor=#333333;strokeOpacity=100;fillOpacity=100;fillColor=#ffffff;strokeWidth=1.5;" vertex="1" parent="1">
            <mxGeometry x="654.5" y="685.5" width="108" height="99" as="geometry" />
          </mxCell>
        </UserObject>
      </root>
    </mxGraphModel>
  </diagram>
</mxfile>
